<?xml version="1.0" standalone="no"?>
<!DOCTYPE svg PUBLIC "-//W3C//DTD SVG 20010904//EN"
 "http://www.w3.org/TR/2001/REC-SVG-20010904/DTD/svg10.dtd">
<svg version="1.0" xmlns="http://www.w3.org/2000/svg"
 width="160.000000pt" height="160.000000pt" viewBox="0 0 160.000000 160.000000"
 preserveAspectRatio="xMidYMid meet">

<g transform="translate(0.000000,160.000000) scale(0.100000,-0.100000)"
fill="#000000" stroke="none">
<path d="M463 1315 c-181 -56 -414 -363 -439 -579 -12 -99 48 -182 121 -168
20 3 27 15 40 61 19 65 50 116 110 180 l43 46 3 95 c4 84 8 104 37 163 38 76
118 169 162 187 68 28 4 41 -77 15z"/>
<path d="M1020 1323 c0 -6 14 -16 30 -23 44 -18 124 -111 162 -187 29 -59 33
-79 37 -163 l3 -95 43 -46 c60 -64 91 -115 110 -180 18 -64 39 -76 94 -53 100
42 85 223 -35 427 -64 106 -208 254 -285 291 -59 28 -159 46 -159 29z"/>
<path d="M932 931 c-62 -40 -104 -143 -104 -260 -1 -140 98 -251 225 -251 112
0 193 78 204 198 7 70 -2 90 -73 182 -100 129 -115 142 -170 147 -37 3 -57 -1
-82 -16z m136 -228 c2 -8 -6 -13 -22 -13 -25 0 -33 10 -19 24 10 10 36 3 41
-11z m40 -192 c-17 -28 -65 -48 -80 -33 -8 8 -5 9 10 5 15 -3 30 4 49 24 32
33 40 34 21 4z"/>
<path d="M518 733 c-30 -34 -38 -62 -38 -126 0 -74 24 -117 65 -117 74 0 99
176 34 241 -24 24 -41 24 -61 2z m52 -28 c11 -13 8 -15 -19 -15 -30 0 -39 9
-24 23 11 11 30 8 43 -8z"/>
<path d="M723 421 c-61 -27 -40 -102 42 -152 l29 -18 -44 -19 c-25 -11 -53
-22 -62 -25 -10 -4 -18 -15 -18 -26 0 -14 -5 -18 -20 -14 -11 3 -18 9 -15 13
2 4 -42 9 -98 12 -118 5 -184 29 -258 94 l-44 38 34 -36 c55 -60 137 -97 238
-109 107 -12 132 -17 161 -35 21 -14 22 -13 22 15 0 21 6 30 23 35 49 13 66 7
75 -26 l8 -33 7 33 c7 34 23 39 75 26 19 -6 22 -13 23 -63 1 -47 3 -51 8 -21
7 43 35 54 170 69 105 12 186 48 242 109 l34 36 -44 -38 c-75 -66 -141 -90
-258 -94 -57 -2 -101 -8 -98 -12 3 -4 -4 -10 -15 -13 -15 -4 -20 0 -20 14 0
11 -8 22 -17 26 -10 3 -38 14 -63 25 l-44 19 29 18 c38 23 61 49 74 83 8 22 6
31 -8 49 -15 19 -30 23 -82 26 -35 1 -74 -1 -86 -6z m90 -28 c-7 -2 -21 -2
-30 0 -10 3 -4 5 12 5 17 0 24 -2 18 -5z"/>
<path d="M682 100 c0 -14 2 -19 5 -12 2 6 2 18 0 25 -3 6 -5 1 -5 -13z"/>
<path d="M709 51 c13 -12 28 -21 34 -21 12 0 11 0 -28 24 l-30 17 24 -20z"/>
<path d="M865 49 c-16 -10 -25 -19 -19 -19 7 0 22 9 35 20 30 24 23 24 -16 -1z"/>
<path d="M778 23 c12 -2 30 -2 40 0 9 3 -1 5 -23 4 -22 0 -30 -2 -17 -4z"/>
</g>
</svg>
